<?xml version="1.0" encoding="utf-8"?>

<!DOCTYPE svg PUBLIC "-//W3C//DTD SVG 1.1//EN" "http://www.w3.org/Graphics/SVG/1.1/DTD/svg11.dtd">
<!-- Uploaded to: SVG Repo, www.svgrepo.com, Generator: SVG Repo Mixer Tools -->
<svg height="800px" width="800px" version="1.1" id="_x32_" xmlns="http://www.w3.org/2000/svg" xmlns:xlink="http://www.w3.org/1999/xlink" 
	 viewBox="0 0 512 512"  xml:space="preserve">
<style type="text/css">
	.st0{fill:#000000;}
</style>
<g>
	<path class="st0" d="M343.644,129.572c25.132,0,49.092,4.961,71.144,13.708C384.072,62.48,305.95,5.048,214.381,5.048
		C95.985,5.048,0,101.033,0,219.433c0,52.546,18.935,100.658,50.315,137.936l-25.09,101.664l123.555-35.476
		c10.935,3.509,22.274,6.114,33.893,7.85c-20.773-30.876-32.924-68.016-32.924-107.946
		C149.749,216.551,236.728,129.572,343.644,129.572z"/>
	<path class="st0" d="M512,327.249c0-88.798-71.988-160.787-160.782-160.787c-88.803,0-160.792,71.989-160.792,160.787
		c0,88.799,71.988,160.787,160.792,160.787c17.161,0,33.69-2.716,49.198-7.693l92.668,26.609l-18.814-76.246
		C497.804,402.748,512,366.661,512,327.249z"/>
</g>
</svg>